<svg width="360" height="76" viewBox="0 0 360 76" fill="none" xmlns="http://www.w3.org/2000/svg">
<g clip-path="url(#clip0)">
<path d="M154.522 33.5139L149.306 58.7967H135.718L140.934 33.5139C141.343 31.5267 141.106 31.1604 139.18 31.1604H134.275C132.362 31.1604 131.961 31.5267 131.557 33.4634C131.557 33.4634 131.557 33.4971 131.557 33.5139L126.34 58.7967H112.74L117.96 33.5139C118.369 31.5267 118.132 31.1604 116.202 31.1604H111.297C109.367 31.1604 108.979 31.5309 108.57 33.5139L103.35 58.7967H89.762L97.7701 19.9862H108.807L110.557 23.3208C111.564 22.2294 112.782 21.3684 114.133 20.7939C115.484 20.2193 116.937 19.9442 118.398 19.9862H121.214C126.528 19.9862 130.114 22.3651 131.397 26.3859C133.772 21.9146 137.214 19.9862 141.372 19.9862H144.192C152.176 19.9862 156.235 25.2954 154.522 33.5139Z" fill="#D800B9"/>
<path d="M195.961 33.5139L193.537 45.2691C191.84 53.4876 185.586 58.7968 177.594 58.7968H167.301C159.321 58.7968 155.262 53.4834 156.959 45.2649L159.383 33.5139C161.075 25.2954 167.329 19.9863 175.325 19.9863H185.635C193.598 19.9863 197.662 25.2954 195.961 33.5139ZM182.361 33.5139C182.769 31.5267 182.532 31.1604 180.607 31.1604H175.701C173.772 31.1604 173.384 31.5309 172.975 33.5139L170.547 45.2649C170.138 47.2521 170.379 47.6184 172.304 47.6184H177.21C179.135 47.6184 179.528 47.2479 179.937 45.2649L182.361 33.5139Z" fill="#D800B9"/>
<path d="M280.764 30.4236C280.267 32.6299 279.067 34.6011 277.355 36.0233L270.434 41.9177C268.775 43.3549 266.687 44.1632 264.519 44.2081H254.937L254.72 45.248C254.312 47.2353 254.549 47.6016 256.478 47.6016H277.212L274.906 58.7799H251.458C243.479 58.7799 239.42 53.4665 241.116 45.248L243.54 33.4971C245.237 25.2786 251.491 19.9694 259.483 19.9694H269.801C277.76 19.9863 281.876 25.0176 280.764 30.4236ZM266.53 33.5139C266.939 31.5267 266.702 31.1604 264.773 31.1604H259.867C257.946 31.1562 257.537 31.5309 257.128 33.5139L256.311 37.56H264.405C264.768 37.5446 265.116 37.4075 265.396 37.1696C265.676 36.9318 265.874 36.6061 265.958 36.2422L266.53 33.5139Z" fill="#D800B9"/>
<path d="M296.041 52.2077C295.289 55.8496 292.497 58.801 288.274 58.801C284.051 58.801 282.481 55.8538 283.234 52.2077C283.986 48.5616 286.778 45.6186 291.001 45.6186C295.223 45.6186 296.781 48.5616 296.041 52.2077Z" fill="#B3B9FF"/>
<path d="M325.196 19.9863L322.89 31.1562L317.167 58.7926H303.583L309.306 31.1562H302.524L304.834 19.9821L325.196 19.9863ZM315.107 12.7404C312.752 10.0458 313.472 5.42289 316.705 2.42095C319.939 -0.580992 324.472 -0.825189 326.839 1.87361C329.206 4.57241 328.474 9.19531 325.241 12.1972C322.007 15.1992 317.465 15.4434 315.107 12.7404Z" fill="#D800B9"/>
<path d="M347.001 25.5734L342.937 45.2649C342.528 47.2522 342.766 47.6185 344.691 47.6185H353.141L350.835 58.7968H339.679C331.7 58.7968 327.636 53.4834 329.333 45.2649L333.396 25.5734H328.258L330.563 14.3951H335.714L337.602 5.24188H351.203L349.314 14.3951H360.008L357.69 25.5734H347.001Z" fill="#D800B9"/>
<path d="M36.7338 5.69232H53.9765L39.6321 76H22.3894L36.7338 5.69232Z" fill="#D800B9"/>
<path d="M62.0337 5.69232H79.2764L68.1001 60.7798H50.8533L62.0337 5.69232Z" fill="#D800B9"/>
<path d="M11.1804 5.69232H28.4231L17.2468 60.7798H0L11.1804 5.69232Z" fill="#D800B9"/>
<path d="M246.279 19.9863L221.085 58.7967H207.187L197.997 19.9863H212.881L216.883 45.4712L231.395 20.0073L246.279 19.9863Z" fill="#D800B9"/>
</g>
<defs>
<clipPath id="clip0">
<rect width="360" height="76" fill="white"/>
</clipPath>
</defs>
</svg>
